# xmcd CD database file
#
# Track frame offsets:
#	150
#	21338
#	45935
#	76759
#	100295
#	123617
#	147430
#	171505
#	196563
#	218639
#	242545
#	269433
#
# Disc length: 3927 seconds
#
# Revision: 0
# Processed by: cddbd v1.5.2PL0 Copyright (c) Steve Scherf et al.
# Submitted via: CDex 1.77
#
DISCID=a00f550c
DTITLE=Solitudes - Tahit - Voices of Paradise
DYEAR=2008
DGENRE=New Age
TTITLE0=Borabora
TTITLE1=Te Ahiahi
TTITLE2=Kua Iti Te Marama
TTITLE3=Ua Vai' Api
TTITLE4=Miri
TTITLE5=Aroha Mai
TTITLE6=E Piko
TTITLE7=Ho Ana Te Vaka
TTITLE8=Tu Tiarre
TTITLE9=Tiarre Taina
TTITLE10=Tiarre Tahiti
TTITLE11=Vahine Paniora
EXTD=YEAR: 2008
EXTT0=
EXTT1=
EXTT2=
EXTT3=
EXTT4=
EXTT5=
EXTT6=
EXTT7=
EXTT8=
EXTT9=
EXTT10=
EXTT11=
PLAYORDER=
